<svg xmlns="http://www.w3.org/2000/svg" width="25" height="24" viewBox="0 0 25 24" fill="none">
  <path d="M21.3163 10.38H12.6837V13.71H17.7347C17.6429 14.52 17.0918 15.78 15.898 16.59C15.1633 17.13 14.0612 17.49 12.6837 17.49C10.2959 17.49 8.18367 15.96 7.44898 13.71C7.26531 13.17 7.17347 12.54 7.17347 11.91C7.17347 11.28 7.26531 10.65 7.44898 10.11C7.54082 9.93 7.54082 9.75 7.63265 9.66C8.45918 7.77 10.3878 6.42 12.6837 6.42C14.4286 6.42 15.5306 7.14 16.2653 7.77L18.8367 5.25C17.2755 3.9 15.1633 3 12.6837 3C9.10204 3 5.97959 4.98 4.5102 7.95C3.86735 9.21 3.5 10.56 3.5 12C3.5 13.44 3.86735 14.79 4.5102 16.05C5.97959 19.02 9.10204 21 12.6837 21C15.1633 21 17.2755 20.19 18.7449 18.84C20.4898 17.31 21.5 14.97 21.5 12.18C21.5 11.46 21.4082 10.92 21.3163 10.38Z" fill="white"/>
</svg>
