<svg xmlns="http://www.w3.org/2000/svg" width="25" height="24" viewBox="0 0 25 24" fill="none">
<path d="M22.202 2.00147C21.9583 2.01216 21.7211 2.07996 21.5072 2.16558C21.2955 2.25064 20.0765 2.7707 18.2765 3.54001C16.4764 4.30931 14.1365 5.31111 11.817 6.30449C7.17794 8.29125 2.61929 10.2461 2.61929 10.2461L2.65251 10.2334C2.65251 10.2334 2.37738 10.3253 2.09842 10.5196C1.95895 10.6167 1.8089 10.7421 1.68603 10.925C1.56317 11.1078 1.47335 11.3669 1.5072 11.641C1.62609 12.6037 2.62417 12.8767 2.62417 12.8767L2.62808 12.8787L7.0823 14.4026C7.19587 14.7813 8.43328 18.9097 8.70548 19.784C8.85581 20.2674 8.99651 20.5462 9.14328 20.7364C9.21672 20.8316 9.29369 20.9053 9.37879 20.9592C9.41261 20.9806 9.44817 20.9966 9.48336 21.0109H9.48531C9.48963 21.0128 9.4937 21.013 9.49801 21.0148L9.48629 21.0119C9.49446 21.0152 9.50253 21.0208 9.51072 21.0236C9.5266 21.0292 9.53633 21.029 9.55665 21.0334C10.0668 21.2115 10.4889 20.881 10.4889 20.881L10.5065 20.8673L13.2428 18.3305L17.6833 21.7914L17.739 21.8168C18.5163 22.1618 19.2192 21.9694 19.6084 21.6527C19.9977 21.3361 20.1508 20.9279 20.1508 20.9279L20.1674 20.8849L23.4304 3.88484C23.5139 3.50451 23.5257 3.17575 23.447 2.87868C23.3683 2.58161 23.1769 2.32337 22.9369 2.18023C22.6968 2.0371 22.4457 1.99078 22.202 2.00147ZM22.2284 3.01837C22.3274 3.01379 22.4007 3.0251 22.4238 3.03888C22.447 3.05267 22.4573 3.05086 22.4795 3.13462C22.5017 3.21838 22.5138 3.3948 22.4532 3.67091L22.4512 3.67677L19.2068 20.5782C19.1991 20.5952 19.1315 20.7516 18.9771 20.8771C18.8197 21.0052 18.6445 21.1052 18.1797 20.9103L13.3239 17.125L13.1871 17.0176L13.1841 17.0205L11.732 15.9313L19.8928 6.33379C19.9555 6.26024 19.9956 6.1701 20.0081 6.07427C20.0207 5.97845 20.0052 5.88104 19.9635 5.79383C19.9219 5.70662 19.8558 5.63334 19.7734 5.58286C19.6909 5.53237 19.5956 5.50683 19.499 5.50933C19.4046 5.51179 19.3127 5.54091 19.2342 5.59334L7.42531 13.4628L2.96425 11.936C2.96425 11.936 2.52127 11.6896 2.50007 11.5179C2.49889 11.5084 2.49366 11.517 2.51668 11.4828C2.5397 11.4485 2.59756 11.3907 2.6701 11.3401C2.81519 11.2391 2.98086 11.178 2.98086 11.178L2.99748 11.1721L3.01409 11.1653C3.01409 11.1653 7.57298 9.21036 12.2118 7.2237C14.5312 6.23038 16.8707 5.22931 18.6703 4.4602C20.4694 3.69128 21.7694 3.13782 21.8795 3.09359C22.0048 3.04342 22.1294 3.02295 22.2284 3.01837ZM16.8165 8.40667L10.6277 15.6852L10.6248 15.6881C10.6151 15.6997 10.606 15.7118 10.5974 15.7242C10.5876 15.7378 10.5784 15.7518 10.57 15.7662C10.5353 15.8252 10.513 15.8907 10.5046 15.9587C10.5046 15.96 10.5046 15.9613 10.5046 15.9626L9.69835 19.5867C9.68494 19.5475 9.67556 19.5332 9.66121 19.4871V19.4861C9.40514 18.6636 8.23767 14.7701 8.07614 14.2316L16.8165 8.40667ZM11.3264 16.8779L12.4385 17.7121L10.8046 19.2262L11.3264 16.8779Z" fill="#08050D" stroke="#08050D" stroke-width="0.5"/>
</svg>
