<svg xmlns="http://www.w3.org/2000/svg" width="25" height="24" viewBox="0 0 25 24" fill="none">
<path d="M6.49593 6.00153L3.80879 6.0029C3.80879 6.0029 3.65502 5.99372 3.46932 6.01945C3.28361 6.04517 3.00927 6.05711 2.72795 6.39439L2.72665 6.39576L2.72535 6.39714C2.47511 6.70043 2.48466 7.05341 2.51594 7.24765C2.54711 7.44117 2.61739 7.58675 2.61739 7.58675V7.58813C2.64323 7.6553 4.59431 12.7218 7.05391 15.4439C8.78884 17.3653 10.6443 17.9996 12.2968 17.9996H13.154C13.436 17.9996 13.6878 17.986 13.9669 17.8328C14.2459 17.6796 14.4858 17.2568 14.4858 16.9285C14.4858 16.5748 14.494 16.2319 14.5366 16.0408C14.5763 15.8623 14.561 15.9061 14.5769 15.9057C14.5928 15.9094 14.6219 15.9165 14.677 15.9429C14.7958 15.9999 14.9794 16.1269 15.183 16.2945C15.5895 16.629 16.0711 17.1143 16.6111 17.4896C17.3845 18.0329 18.2239 17.9996 18.2239 17.9996H20.9917L21.0216 17.9968C21.0216 17.9968 21.4463 17.9866 21.8826 17.7032C22.1008 17.5615 22.3601 17.3016 22.4471 16.912C22.5342 16.5224 22.423 16.1136 22.2091 15.7541C22.131 15.6222 21.7516 15.0395 20.2373 13.6147C19.8461 13.247 19.5793 12.9867 19.4738 12.8483C19.4364 12.7992 19.4332 12.8039 19.4257 12.8014C19.4345 12.7773 19.522 12.5821 19.7561 12.2597C20 11.9238 20.3707 11.4557 20.8473 10.8123C21.4548 9.9921 21.881 9.20339 22.1493 8.53788C22.2834 8.20513 22.3784 7.90319 22.4354 7.62948C22.4924 7.35577 22.5378 7.12827 22.4536 6.80379C22.3908 6.56225 22.2202 6.34592 22.053 6.23173C21.8858 6.11754 21.7299 6.07452 21.59 6.04701C21.3101 5.99199 21.0632 6.00153 20.833 6.00153C20.351 6.00153 18.2083 6.01945 18.0314 6.01945C17.8238 6.01945 17.4927 6.11106 17.3395 6.20416C16.959 6.43506 16.84 6.75141 16.84 6.75141L16.8036 6.81895L16.7828 6.89477C16.7828 6.89477 16.2949 8.56758 15.793 9.42975H15.7917C15.2015 10.4454 14.7613 10.8483 14.5678 10.9626C14.5472 10.9747 14.5586 10.9683 14.5444 10.9764C14.5292 10.9296 14.5101 10.8653 14.4975 10.7462C14.4692 10.4778 14.4858 10.0999 14.4858 9.73438C14.4858 8.72202 14.5576 8.09073 14.478 7.49302C14.4383 7.19416 14.337 6.86134 14.106 6.60529C13.8751 6.34924 13.5767 6.22321 13.2788 6.1504H13.2775C12.967 6.07462 12.6325 6.00954 11.8286 6.00153C10.8044 5.99141 10.1374 6.02506 9.54466 6.30479L9.53816 6.30892L9.53295 6.31168C9.29876 6.42826 9.11415 6.5619 8.95156 6.74038C8.87027 6.82962 8.77383 6.8946 8.70704 7.17873C8.67364 7.32079 8.66998 7.58957 8.8215 7.8073C8.97301 8.02503 9.18535 8.0907 9.31054 8.10781C9.28745 8.10463 9.40904 8.13299 9.50304 8.18224C9.59704 8.2315 9.67866 8.30242 9.69944 8.33112V8.33249C9.69075 8.32053 9.78102 8.55828 9.80479 8.77498C9.82856 8.99168 9.8243 9.16646 9.8243 9.16646L9.823 9.20919L9.8269 9.25192C9.8269 9.25192 9.86778 9.73147 9.84641 10.2265C9.83572 10.474 9.8062 10.7231 9.76707 10.8757C9.765 10.8838 9.76406 10.881 9.76187 10.8882C9.59514 10.7647 9.21068 10.3347 8.68103 9.40769C8.19141 8.55014 7.73285 7.0078 7.73285 7.0078L7.72245 6.97334L7.71074 6.94025C7.71074 6.94025 7.62525 6.59571 7.24771 6.31444C6.89385 6.05042 6.55706 6.01393 6.55706 6.01393L6.49593 6.00153ZM6.34116 7.41306C6.37925 7.42782 6.45888 7.45823 6.47382 7.46545L6.45821 7.41582L6.47902 7.46682L6.48163 7.4682V7.46958H6.48293C6.44946 7.44477 6.47783 7.4694 6.48163 7.4751C6.50002 7.5416 6.90664 9.02605 7.54166 10.1383C8.12014 11.1508 8.54752 11.718 9.01399 12.0571C9.48002 12.3958 10.1067 12.3609 10.4252 12.1853C10.8509 11.951 10.9699 11.5659 11.0521 11.2452C11.1344 10.9244 11.1637 10.599 11.177 10.2913C11.2023 9.70409 11.159 9.22374 11.1549 9.17611C11.1555 9.14958 11.1615 8.92017 11.1276 8.61094C11.0934 8.29936 11.0321 7.91215 10.7712 7.52334C11.0634 7.47732 11.2257 7.40724 11.8156 7.41306C12.5679 7.42057 12.6823 7.45383 12.9784 7.5261C13.1396 7.56551 13.1575 7.59816 13.1423 7.58124C13.127 7.56431 13.1409 7.55301 13.1592 7.69013C13.1957 7.96433 13.154 8.66756 13.154 9.73438C13.154 10.0351 13.1266 10.4592 13.1735 10.9033C13.2204 11.3472 13.3512 11.9151 13.8576 12.2473C14.1461 12.4366 14.6973 12.5016 15.2168 12.1949C15.7363 11.8882 16.2694 11.2998 16.9259 10.17C17.5743 9.05596 17.9621 7.59131 18.0041 7.4365C18.0041 7.4365 18.0115 7.4314 18.0158 7.42823C18.0276 7.42883 18.0126 7.43098 18.0314 7.43098C18.2781 7.43098 20.3827 7.41306 20.833 7.41306C20.9569 7.41306 21.0113 7.42013 21.1035 7.42409C21.0663 7.57647 21.0161 7.75391 20.9241 7.98237C20.7076 8.51931 20.3362 9.21576 19.799 9.94115C19.336 10.5661 18.9763 11.0194 18.7012 11.3982C18.4262 11.777 18.2101 12.0758 18.1199 12.5078C18.0296 12.9399 18.2018 13.4272 18.4372 13.736C18.6726 14.0449 18.9639 14.3051 19.3529 14.6706C20.818 16.0492 21.0584 16.4664 21.0814 16.5054V16.5067C21.1062 16.5483 21.0901 16.5065 21.0996 16.5274C21.0166 16.5549 20.9177 16.5859 20.9084 16.5881H18.2135H18.2096C18.2096 16.5881 17.7139 16.5708 17.346 16.3124L17.3447 16.311H17.3434C16.9541 16.0408 16.4836 15.5774 15.9998 15.1793C15.7579 14.9802 15.5116 14.7937 15.2259 14.6568C14.9402 14.52 14.5782 14.4229 14.1971 14.5438C13.6455 14.7188 13.3394 15.2751 13.2411 15.7169C13.1705 16.034 13.181 16.3098 13.1787 16.5867C13.1597 16.5877 13.1761 16.5881 13.154 16.5881H12.2968C10.9433 16.5881 9.53521 16.1502 8.01639 14.468C6.04179 12.2826 4.28005 8.05645 4.01559 7.41444L6.34116 7.41306ZM17.9573 7.41858C17.9452 7.42143 17.9798 7.4242 18.008 7.42685C18.0042 7.42904 18.0083 7.42491 18.0028 7.42823C18.0022 7.41643 17.9735 7.41474 17.9573 7.41858Z" fill="#08050D"/>
</svg>
