<svg xmlns="http://www.w3.org/2000/svg" width="25" height="24" viewBox="0 0 25 24" fill="none">
<path d="M13.3774 2.00002C13.32 2.00059 13.2633 2.01246 13.2105 2.03498C13.1577 2.05749 13.1098 2.0902 13.0696 2.13122C13.0295 2.17225 12.9978 2.2208 12.9764 2.27408C12.9551 2.32736 12.9444 2.38433 12.9451 2.44174C12.9831 5.65298 13.1707 7.91426 14.4851 9.42815C15.7995 10.942 18.1025 11.5142 22.0582 11.5574C22.1192 11.5581 22.1798 11.546 22.2359 11.5219C22.292 11.4977 22.3424 11.4621 22.3839 11.4173C22.4253 11.3724 22.4569 11.3194 22.4766 11.2615C22.4963 11.2037 22.5036 11.1424 22.4982 11.0816C22.0614 6.27183 18.2306 2.43981 13.4209 2.00173C13.4064 2.00044 13.3919 1.99987 13.3774 2.00002ZM11.5833 2.00258C11.5722 2.00273 11.5611 2.0033 11.55 2.00429C6.75388 2.45515 2.93711 6.28138 2.50176 11.0816C2.49628 11.1424 2.50362 11.2037 2.52331 11.2615C2.54299 11.3194 2.57459 11.3724 2.61606 11.4173C2.65753 11.4621 2.70794 11.4977 2.76405 11.5219C2.82015 11.546 2.8807 11.5581 2.94177 11.5574C6.88577 11.512 9.18275 10.9387 10.4926 9.42474C11.8025 7.91079 11.9885 5.65152 12.0267 2.4443C12.0274 2.38596 12.0164 2.32807 11.9943 2.27406C11.9722 2.22004 11.9396 2.171 11.8982 2.12982C11.8569 2.08865 11.8077 2.05617 11.7536 2.03432C11.6995 2.01246 11.6416 2.00167 11.5833 2.00258ZM13.8566 2.96531C17.8313 3.55949 20.9493 6.68052 21.5371 10.6569C18.0445 10.5643 16.1402 10.0031 15.1443 8.85597C14.165 7.72811 13.9196 5.78543 13.8566 2.96531ZM11.116 2.96873C11.0529 5.7847 10.8074 7.72582 9.83179 8.85341C8.83955 10.0002 6.94282 10.5612 3.46279 10.6561C4.04956 6.6892 7.15461 3.57295 11.116 2.96873ZM2.94177 12.4426C2.8807 12.4418 2.82015 12.4539 2.76405 12.4781C2.70794 12.5022 2.65753 12.5379 2.61606 12.5827C2.57459 12.6276 2.54299 12.6806 2.52331 12.7384C2.50362 12.7962 2.49628 12.8575 2.50176 12.9184C2.93756 17.719 6.75385 21.5453 11.55 21.9957C11.6109 22.0013 11.6723 21.994 11.7302 21.9744C11.7882 21.9548 11.8413 21.9232 11.8863 21.8817C11.9312 21.8402 11.9669 21.7898 11.9911 21.7336C12.0153 21.6774 12.0274 21.6168 12.0267 21.5557C11.9885 18.3484 11.8025 16.0892 10.4926 14.5752C9.18275 13.0612 6.88578 12.4878 2.94177 12.4426ZM22.0582 12.4426C18.1025 12.4858 15.7994 13.0579 14.4851 14.5718C13.1708 16.0857 12.9833 18.347 12.9451 21.5582C12.9444 21.6193 12.9565 21.6798 12.9806 21.736C13.0048 21.7921 13.0404 21.8425 13.0852 21.8839C13.1301 21.9254 13.1831 21.957 13.2409 21.9767C13.2988 21.9964 13.3601 22.0037 13.4209 21.9982C18.2302 21.5602 22.061 17.729 22.4982 12.9192C22.5038 12.8583 22.4965 12.7969 22.4769 12.739C22.4573 12.6811 22.4257 12.6279 22.3842 12.583C22.3427 12.5381 22.2923 12.5023 22.2361 12.4781C22.1799 12.4539 22.1193 12.4418 22.0582 12.4426ZM21.5371 13.343C20.9489 17.3195 17.8309 20.4405 13.8566 21.0347C13.9198 18.2145 14.1651 16.2719 15.1443 15.144C16.1402 13.9968 18.0445 13.4357 21.5371 13.343ZM3.46279 13.3439C6.94281 13.4385 8.83955 13.9997 9.83179 15.1466C10.8074 16.2742 11.0529 18.2153 11.116 21.0312C7.15465 20.4274 4.04987 17.3112 3.46279 13.3439Z" fill="#08050D" stroke="#08050D" stroke-width="0.5"/>
</svg>
